PathFileType	4	(X/Y/Z)	stereocamera_static.trc
DataRate	CameraRate	NumFrames	NumMarkers	Units	OrigDataRate	OrigDataStartFrame	OrigNumFrames
28.086763070077865	28.086763070077865	17	15	mm	28.086763070077865	102	203
Frame#	Time	JOINT_NECK			JOINT_RIGHT_CLAVICLE			JOINT_LEFT_CLAVICLE			JOINT_RIGHT_SHOULDER			JOINT_LEFT_SHOULDER			JOINT_RIGHT_ELBOW			JOINT_LEFT_ELBOW			JOINT_LEFT_WRIST			JOINT_RIGHT_WRIST			JOINT_SPINE_3			JOINT_SPINE_2			JOINT_SPINE_1			JOINT_PELVIS			JOINT_RIGHT_HIP			JOINT_LEFT_HIP
		X1	Y1	Z1	X2	Y2	Z2	X3	Y3	Z3	X4	Y4	Z4	X5	Y5	Z5	X6	Y6	Z6	X7	Y7	Z7	X8	Y8	Z8	X9	Y9	Z9	X10	Y10	Z10	X11	Y11	Z11	X12	Y12	Z12	X13	Y13	Z13	X14	Y14	Z14	X15	Y15	Z15

102	1749651037.530000	169.337960	2.350718	909.660640	102.751374	-2.339765	955.040930	236.045700	7.921815	892.788200	28.030418	-6.067544	980.417850	300.330370	13.530925	870.764550	-31.073818	-264.463100	1026.420200	352.046940	-218.108120	818.880500	nan	nan	nan	-69.903210	-397.654530	993.465000	158.639430	-84.275320	852.419900	153.050800	-165.792730	822.206100	150.580350	-245.542900	809.920200	146.623980	-321.823270	788.705300	nan	nan	nan	nan	nan	nan
103	1749651037.563000	169.601780	3.966704	911.132930	103.042010	-0.684381	955.610100	236.296830	9.002462	893.790660	26.567325	-4.455552	984.145640	300.180900	14.462158	871.517000	-31.329720	-265.640500	1025.802700	352.298140	-218.273010	819.306900	nan	nan	nan	-73.280050	-401.224760	1006.057100	158.639220	-84.242340	852.492300	153.055100	-164.486290	822.484500	150.474640	-245.611460	809.854000	146.388290	-321.925340	788.716200	nan	nan	nan	nan	nan	nan
104	1749651037.597000	169.734610	4.954517	911.853850	100.736246	2.878919	959.324400	236.462760	9.646922	894.407450	24.000052	-2.787024	989.779300	300.656320	15.586823	871.320900	-31.578890	-267.386140	1029.009500	352.580070	-218.264360	819.584250	nan	nan	nan	-75.523116	-401.860920	1006.137300	158.788600	-82.099750	853.489200	153.059830	-163.710500	822.624800	150.453060	-245.737170	809.747500	146.338550	-322.085800	788.703300	nan	nan	nan	nan	nan	nan
105	1749651037.630000	169.413800	3.166705	909.806850	101.530686	0.084519	957.375470	236.572400	10.130644	894.805600	26.492390	-5.013362	988.078300	300.821450	14.672264	871.364950	-31.695705	-267.637550	1028.601200	352.517930	-217.865030	820.197900	nan	nan	nan	-75.807930	-406.550650	1008.278300	158.735300	-82.804784	853.103760	152.987200	-165.312380	822.173060	150.488030	-245.715960	809.712600	146.406020	-322.096770	788.749750	nan	nan	nan	nan	nan	nan
106	1749651037.664000	169.532820	4.310429	910.781150	102.252720	0.510901	956.932960	236.608640	10.369316	894.883900	26.099205	-4.566953	993.597870	300.237800	15.211687	871.509200	-31.498242	-267.188280	1027.926700	352.614300	-217.988360	820.762500	nan	nan	nan	-74.464260	-406.358800	1007.937800	158.703540	-83.418260	852.878800	153.008860	-164.344010	822.355700	150.538890	-245.696510	809.689640	146.513180	-322.107200	788.799400	nan	nan	nan	nan	nan	nan
107	1749651037.697000	169.615690	5.111858	911.458500	102.750490	0.788838	956.670100	236.631600	10.462269	894.927700	25.522795	-3.360107	988.454900	299.973130	15.814320	871.299300	-31.122570	-266.385600	1029.657200	352.555270	-217.859950	821.088000	nan	nan	nan	-73.262240	-407.230300	1014.444100	158.815700	-81.632964	853.607650	153.040170	-163.673340	822.560000	150.594040	-245.676370	809.723000	146.618870	-322.099830	788.844100	nan	nan	nan	nan	nan	nan
108	1749651037.731000	169.697580	5.518407	911.909500	103.071176	0.868171	956.566750	236.661170	10.378495	894.933000	25.200753	-3.642753	991.694600	300.124700	15.191957	870.347140	-30.590057	-263.262600	1029.402000	352.597120	-217.140640	820.785700	nan	nan	nan	-72.052320	-408.410370	1023.973600	158.747540	-82.727380	853.057560	153.058590	-163.333640	822.650970	150.623700	-245.723840	809.728740	146.681850	-322.155240	788.857460	nan	nan	nan	nan	nan	nan
109	1749651037.764000	169.748680	5.700707	912.217900	100.552290	0.869200	957.384900	236.641380	10.273680	894.829300	24.236338	-2.938271	986.198500	300.580800	15.526518	870.098050	-30.201200	-263.526470	1036.445100	352.340340	-217.160250	820.589660	nan	nan	nan	-69.812410	-402.888660	1013.653600	158.865930	-81.356116	853.811400	153.064640	-163.173360	822.640960	150.655420	-245.766850	809.758400	146.743550	-322.204140	788.888500	nan	nan	nan	nan	nan	nan
110	1749651037.798000	167.539720	8.352697	914.802970	99.041164	3.567711	960.253800	236.942700	12.738526	896.188100	21.575889	-1.738250	988.132830	300.503520	16.348362	870.925400	-30.780723	-264.920470	1035.239200	352.299540	-216.842500	820.348900	nan	nan	nan	-69.588660	-406.020000	1025.519800	158.969570	-80.330010	854.430000	153.081200	-163.018960	822.725800	150.676640	-245.668800	809.816800	146.785690	-322.116760	788.966950	nan	nan	nan	nan	nan	nan
111	1749651037.831000	168.333720	7.368311	913.970600	100.650510	2.528533	958.949800	236.838530	11.735603	895.672260	22.440778	-2.318531	985.162700	300.710020	15.923887	870.174400	-30.523209	-265.419300	1034.818200	352.227700	-217.121560	820.264100	nan	nan	nan	-68.477330	-403.296800	1015.430300	158.876970	-82.147470	853.744300	153.115480	-163.180260	822.887500	150.695820	-245.790510	809.829200	146.814810	-322.232070	788.947100	nan	nan	nan	nan	nan	nan
112	1749651037.865000	168.998640	6.677106	913.280300	99.213354	1.835197	958.765500	236.764090	11.071563	895.306300	22.851132	-2.836764	980.681700	301.042700	15.608504	871.534650	-30.000001	-262.363500	1034.198800	352.125760	-217.675150	819.507700	nan	nan	nan	-68.212270	-401.651080	1015.506000	158.813070	-83.318256	853.323040	153.139560	-163.188460	823.019300	150.700460	-245.728080	809.856700	146.828000	-322.182120	789.010900	nan	nan	nan	nan	nan	nan
113	1749651037.898000	167.135200	6.204546	914.805650	98.252095	1.360118	958.604160	236.672270	10.644510	895.027300	21.289965	-2.340063	990.521550	301.043660	16.139835	872.377200	-30.205250	-263.794960	1033.444500	352.073400	-218.651920	818.925700	nan	nan	nan	-67.201190	-402.911300	1014.974000	158.916300	-81.803880	854.103740	153.145250	-163.162890	823.020400	150.713940	-245.641770	809.864460	146.856730	-322.105000	789.044600	nan	nan	nan	nan	nan	nan
114	1749651037.931000	168.244620	5.835697	913.788000	100.417666	1.024172	957.673430	236.641380	10.320350	894.866300	22.746198	-2.586618	988.732800	301.476300	15.161678	871.030570	-29.999690	-261.171880	1035.793000	351.599480	-218.156440	819.689500	nan	nan	nan	-67.300740	-399.059770	1008.011600	158.875170	-82.977794	853.780500	153.130440	-163.183850	822.919000	150.700810	-245.623770	809.854500	146.843750	-322.107200	789.093400	nan	nan	nan	nan	nan	nan
115	1749651037.965000	165.574340	6.021649	891.982100	101.953790	0.813082	956.996000	236.602300	10.121569	894.714800	23.730738	-2.974927	992.331740	301.698650	15.334710	870.474800	-29.816918	-259.947360	1034.965600	351.045160	-217.289980	820.257840	nan	nan	nan	-65.454350	-395.496340	1002.703300	158.827740	-83.797190	853.463200	153.092940	-163.198560	822.684170	150.701700	-245.652630	809.902800	146.836000	-322.135570	789.119600	61.711174	-338.567550	824.866650	238.764450	-321.342860	796.835660
116	1749651037.998000	167.023080	5.646333	898.804370	102.888286	0.594109	956.552150	236.587540	9.930387	894.747300	24.154693	-3.776059	993.133960	301.838700	14.583841	869.629740	-30.187247	-260.708030	1035.556700	351.394410	-217.213400	820.445660	nan	nan	nan	-67.779220	-395.617540	999.170300	158.789470	-84.390600	853.270770	153.040530	-163.282590	822.356100	150.709990	-245.775520	809.909050	146.841900	-322.250460	789.089400	nan	nan	nan	nan	nan	nan
117	1749651038.032000	168.202030	5.437255	904.772200	100.715680	0.522539	957.213340	236.588510	9.864390	894.767000	24.448443	-3.953963	995.515050	301.561060	14.304012	869.251000	-29.675012	-258.857730	1027.128100	351.529330	-216.985270	820.736170	nan	nan	nan	-67.213700	-393.970130	1002.415000	158.770840	-84.673890	853.189770	152.990430	-163.299900	822.091160	150.717990	-245.851490	809.981170	146.837670	-322.314980	789.110960	nan	nan	nan	nan	nan	nan
118	1749651038.065000	165.405260	5.245239	886.524100	101.797150	0.734866	956.932700	236.603420	10.078281	894.907700	24.641769	-4.286379	988.071800	301.857320	14.137030	870.206000	-30.040696	-260.126080	1027.824900	351.535350	-216.804090	820.886300	nan	nan	nan	-66.876550	-392.303320	1000.096900	158.751590	-84.565480	853.161450	152.946560	-163.094130	821.899650	150.748700	-245.729710	810.169400	146.859400	-322.181460	789.232500	62.159523	-338.169000	824.930700	239.661680	-323.979380	799.496300
